# AST/ASF file generated using VICON BodyLanguage
# -----------------------------------------------
:version 1.10
:name VICON
:units
  mass 1.0
  length 0.45
  angle deg
:documentation
   .ast/.asf automatically generated from VICON data using
   VICON BodyBuilder and BodyLanguage model FoxedUp or BRILLIANT.MOD
:root
   order TX TY TZ RX RY RZ
   axis XYZ
   position 0 0 0  
   orientation 0 0 0 
:bonedata
  begin
     id 1 
     name lhipjoint
     direction 0.440178 -0.822639 0.359871 
     length 2.53113 
     axis 0 0 0  XYZ
  end
  begin
     id 2 
     name lfemur
     direction 0.34202 -0.939693 0  
     length 7.88132  
     axis 0 0 20  XYZ
    dof rx ry rz
    limits (-160.0 20.0)
           (-70.0 70.0)
           (-60.0 70.0)
  end
  begin
     id 3 
     name ltibia
     direction 0.34202 -0.939693 0   
     length 8.43783   
     axis 0 0 20   XYZ
    dof rx
    limits (-10.0 170.0)
  end
  begin
     id 4 
     name lfoot
     direction 0.0886351 -0.243523 0.965837   
     length 2.63414   
     axis -90 7.62852e-016 20   XYZ
    dof rx rz
    limits (-45.0 90.0)
           (-70.0 20.0)
  end
  begin
     id 5 
     name ltoes
     direction 1.53703e-011 -4.21717e-011 1   
     length 1.31427   
     axis -90 7.62852e-016 20   XYZ
    dof rx
    limits (-90.0 20.0)
  end
  begin
     id 6 
     name rhipjoint
     direction -0.399779 -0.839773 0.367367   
     length 2.47948  
     axis 0 0 0  XYZ 
  end
  begin
     id 7 
     name rfemur
     direction -0.34202 -0.939693 0   
     length 7.74806   
     axis 0 0 -20   XYZ
    dof rx ry rz
    limits (-160.0 20.0)
           (-70.0 70.0)
           (-70.0 60.0)
  end
  begin
     id 8 
     name rtibia
     direction -0.34202 -0.939693 0   
     length 8.74432   
     axis 0 0 -20   XYZ
    dof rx
    limits (-10.0 170.0)
 end
 begin
     id 9 
     name rfoot
     direction -0.108514 -0.298139 0.948334   
     length 2.66102  
     axis -90 -7.62852e-016 -20   XYZ
    dof rx rz
    limits (-45.0 90.0)
           (-20.0 70.0)
  end
  begin
     id 10 
     name rtoes
     direction -1.53392e-011 -4.22077e-011 1   
     length 1.31983   
     axis -90 -7.62852e-016 -20   XYZ
    dof rx
    limits (-90.0 20.0)
  end
  begin
     id 11 
     name lowerback
     direction 0.0113257 0.999866 0.0118602   
     length 2.58694   
     axis 0 0 0   XYZ
    dof rx ry rz
    limits (-20.0 45.0)
           (-30.0 30.0)
           (-30.0 30.0)
  end
  begin
     id 12 
     name upperback
     direction -0.0164747 0.995193 -0.0965375   
     length 2.52368   
     axis 0 0 0   XYZ
    dof rx ry rz
    limits (-20.0 45.0)
           (-30.0 30.0)
           (-30.0 30.0)
  end
  begin
     id 13 
     name thorax
     direction -0.0194301 0.99433 -0.104552   
     length 2.56099   
     axis 0 0 0   XYZ
    dof rx ry rz
    limits (-20.0 45.0)
           (-30.0 30.0)
           (-30.0 30.0)
  end
  begin
     id 14 
     name lowerneck
     direction 0.0148543 0.995587 -0.092657   
     length 1.71582   
     axis 0 0 0   XYZ
    dof rx ry rz
    limits (-20.0 45.0)
           (-30.0 30.0)
           (-30.0 30.0)
  end
  begin
     id 15 
     name upperneck
     direction -0.0135467 0.993656 -0.111639   
     length 1.68937   
     axis 0 0 0   XYZ
    dof rx ry rz
    limits (-20.0 45.0)
           (-30.0 30.0)
           (-30.0 30.0)
  end
  begin
     id 16
     name head
     direction -0.00615349 0.999547 -0.029448  
     length 1.7462  
     axis 0 0 0   XYZ
    dof rx ry rz
    limits (-20.0 45.0)
           (-30.0 30.0)
           (-30.0 30.0)
  end
  begin
     id 17 
     name lclavicle
     direction 0.988267 0.149885 0.0293713  
     length 4.47222  
     axis 0 0 0   XYZ
    dof ry rz
    limits (-20.0 10.0)
           (0.0 20.0)
  end
  begin
     id 18 
     name lhumerus
     direction 1 -4.48986e-011 -1.14833e-027   
     length 5.37148   
     axis 180 -30 -90   XYZ
    dof rx ry rz
    limits (-60.0 90.0)
           (-90.0 90.0)
           (-90.0 90.0)
  end
  begin
     id 19
     name lradius
     direction 0.999998 0.00170963 -0.000987055   
     length 3.94212   
     axis 180 -30 -90   XYZ
    dof rx
    limits (-10.0 170.0)
  end
  begin
     id 20
     name lwrist
     direction 0.999998 7.53149e-005 -0.00194706   
     length 1.97106   
     axis 4.65056e-015 90 90   XYZ
    dof ry
    limits (-180.0 0.0)
 end
  begin
     id 21 
     name lhand
     direction 1 -4.48973e-011 -1.31746e-026   
     length 1.17917   
     axis 8.4065e-015 90 90   XYZ
    dof rx rz
    limits (-90.0 90.0)
           (-45.0 45.0)
  end
  begin
     id 22 
     name lfingers
     direction 1 -4.49107e-011 -2.63492e-026   
     length 0.950679   
     axis 1.6813e-014 90 90   XYZ
    dof rx
    limits (0.0 90.0)
  end
  begin
     id 23
     name lthumb
     direction 0.707107 -6.35048e-011 0.707107   
     length 1.36499   
     axis -90 45 2.85299e-015   XYZ
    dof rx rz
    limits (-45.0 45.0)
           (-45.0 45.0)
  end
  begin
     id 24 
     name rclavicle
     direction -0.996699 0.0642895 -0.0495725   
     length 4.62611  
     axis 0 0 0   XYZ 
    dof ry rz
    limits (-10.0 20.0)
           (-20.0 0.0)
  end
  begin
     id 25 
     name rhumerus
     direction -1 -4.48919e-011 -2.41059e-027  
     length 5.4981   
     axis 180 30 90   XYZ
    dof rx ry rz
    limits (-90.0 60.0)
           (-90.0 90.0)
           (-90.0 90.0)
  end
  begin
     id 26 
     name rradius
     direction -0.999999 0.00118101 -0.000681858   
     length 3.48381   
     axis 180 30 90   XYZ
    dof rx
    limits (-10.0 170.0)
  end
  begin
     id 27 
     name rwrist
     direction -0.999999 0.000321823 -0.00132288   
     length 1.7419   
     axis 4.65056e-015 -90 -90   XYZ
    dof ry
    limits (-180.0 0.0)
  end
  begin
     id 28
     name rhand
     direction -1 -4.49022e-011 -1.31746e-026   
     length 1.34932   
     axis 8.4065e-015 -90 -90   XYZ
    dof rx rz
    limits (-90.0 90.0)
           (-45.0 45.0)
  end
  begin
     id 29
     name rfingers
     direction -1 -4.49178e-011 -2.63492e-026   
     length 1.08785   
     axis 1.6813e-014 -90 -90   XYZ
    dof rx
    limits (0.0 90.0)
  end
  begin
     id 30
     name rthumb
     direction -0.707107 -6.34713e-011 0.707107   
     length 1.56195   
     axis -90 -45 -2.85299e-015   XYZ
    dof rx rz
    limits (-45.0 45.0)
           (-45.0 45.0)
  end
:hierarchy
  begin
    root lhipjoint rhipjoint lowerback
    lhipjoint lfemur
    lfemur ltibia
    ltibia lfoot
    lfoot ltoes
    rhipjoint rfemur
    rfemur rtibia
    rtibia rfoot
    rfoot rtoes
    lowerback upperback
    upperback thorax
    thorax lowerneck lclavicle rclavicle
    lowerneck upperneck
    upperneck head
    lclavicle lhumerus
    lhumerus lradius
    lradius lwrist
    lwrist lhand lthumb
    lhand lfingers
    rclavicle rhumerus
    rhumerus rradius
    rradius rwrist
    rwrist rhand rthumb
    rhand rfingers
  end

#!OML:ASF X:\für Bonn\!DataBase\2005_08_10_Bjorn_Final\c3d\bjorn.ASF
:FULLY-SPECIFIED
:DEGREES
1
root 0.946452 19.2343 2.49728 -171.319 2.10357 -177.754
lowerback -5.75277 1.09158 3.34806
upperback 4.28754 1.27365 -0.30268
thorax 7.81975 0.855943 -2.03349
lowerneck -11.2651 -3.1535 0.781688
upperneck 13.8619 -4.7433 0.728577
head 6.0536 -2.28267 -0.306299
rclavicle -7.45443e-016 -7.95139e-016
rhumerus 73.9798 -0.268599 -71.0172
rradius 9.27485
rwrist 48.6608
rhand -7.82004 10.4645
rfingers 7.12502
rthumb 18.082 -18.715
lclavicle -7.45443e-016 -7.95139e-016
lhumerus 76.4174 -6.13075 67.4481
lradius 10.2163
lwrist -49.6526
lhand -13.3068 -7.7926
lfingers 7.12502
lthumb 12.7974 21.7951
rfemur -19.8591 -23.2469 20.459
rtibia 31.3313
rfoot -11.5763 26.9496
rtoes -8.5715
lfemur -17.9821 13.7705 -17.0102
ltibia 31.5323
lfoot -17.7415 -17.558
ltoes -9.00403
2
root 0.952494 19.2258 2.4959 -171.26 2.21124 -177.773
lowerback -5.79781 1.12765 3.27707
upperback 4.24401 1.32436 -0.30544
thorax 7.80039 0.874708 -1.98998
lowerneck -11.5661 -3.17896 0.695062
upperneck 14.0729 -4.77499 0.748886
head 6.17453 -2.29687 -0.297157
rclavicle 5.71506e-015 7.15625e-015
rhumerus 73.9921 -0.277353 -71.0397
rradius 9.28842
rwrist 48.7016
rhand -8.01219 10.5496
rfingers 7.12502
rthumb 17.8971 -18.6469
lclavicle 5.71506e-015 7.15625e-015
lhumerus 76.624 -6.1236 67.2829
lradius 10.2177
lwrist -49.6585
lhand -13.3542 -8.00429
lfingers 7.12502
lthumb 12.7517 21.5863
rfemur -19.9505 -23.4419 20.5108
rtibia 31.3759
rfoot -11.9145 27.1724
rtoes -9.27219
lfemur -18.0366 14.068 -17.0052
ltibia 31.6048
lfoot -18.0315 -17.9
ltoes -9.54253
3
root 0.957943 19.2193 2.49746 -171.196 2.3073 -177.793
lowerback -5.86269 1.16209 3.21991
upperback 4.24351 1.37336 -0.316356
thorax 7.83935 0.896028 -1.96203
lowerneck -11.9211 -3.21054 0.615286
upperneck 14.2632 -4.81581 0.787871
head 6.29883 -2.31234 -0.284771
rclavicle -8.00108e-015 5.96354e-016
rhumerus 73.9724 -0.299187 -71.0756
rradius 9.29261
rwrist 48.7238
rhand -8.24404 10.6164
rfingers 7.12502
rthumb 17.674 -18.6004
lclavicle -8.00108e-015 5.96354e-016
lhumerus 76.8842 -6.15737 66.8631
lradius 10.2008
lwrist -49.4318
lhand -13.4742 -8.1915
lfingers 7.12502
lthumb 12.6361 21.4063
rfemur -20.0571 -23.648 20.5758
rtibia 31.4047
rfoot -12.2691 27.3585
rtoes -10.1298
lfemur -18.1 14.3505 -17.0189
ltibia 31.6469
lfoot -18.2553 -18.2074
ltoes -10.063
4
root 0.962082 19.2164 2.50019 -171.137 2.39645 -177.829
lowerback -5.90655 1.19835 3.16168
upperback 4.22135 1.42511 -0.32958
thorax 7.84287 0.917499 -1.93618
lowerneck -12.0843 -3.24375 0.514958
upperneck 14.3355 -4.85305 0.844709
head 6.35384 -2.32838 -0.257919
rclavicle 1.59525e-014 -1.98785e-016
rhumerus 73.9132 -0.317721 -71.0976
rradius 9.21413
rwrist 48.5947
rhand -8.50064 10.7685
rfingers 7.12502
rthumb 17.4271 -18.4703
lclavicle 1.59525e-014 -1.98785e-016
lhumerus 77.0687 -6.24712 66.3491
lradius 10.2013
lwrist -49.0814
lhand -13.548 -8.30133
lfingers 7.12502
lthumb 12.5649 21.3008
rfemur -20.1249 -22.8981 20.5548
rtibia 31.4
rfoot -12.7999 26.6622
rtoes -10.7456
lfemur -18.1511 14.6182 -17.0503
ltibia 31.6637
lfoot -18.3842 -18.5398
ltoes -10.3019
5
root 0.965057 19.2146 2.50476 -171.047 2.47883 -177.883
lowerback -5.97621 1.2284 3.08911
upperback 4.19323 1.46773 -0.33187
thorax 7.85361 0.933132 -1.8915
lowerneck -12.2317 -3.27082 0.392706
upperneck 14.4335 -4.87495 0.87322
head 6.41418 -2.34086 -0.235221
rclavicle 1.43622e-014 3.97569e-016
rhumerus 73.8226 -0.287611 -71.1023
rradius 9.12815
rwrist 48.432
rhand -8.74004 10.9053
rfingers 7.12502
rthumb 17.1967 -18.3537
lclavicle 1.43622e-014 3.97569e-016
lhumerus 77.2025 -6.315 65.9908
lradius 10.1934
lwrist -48.854
lhand -13.6518 -8.42099
lfingers 7.12502
lthumb 12.4648 21.1873
rfemur -20.2157 -22.0363 20.517
rtibia 31.3646
rfoot -13.3453 25.8276
rtoes -11.4592
lfemur -18.2305 14.8715 -17.122
ltibia 31.6436
lfoot -18.4105 -18.8817
ltoes -10.2697
6
root 0.967506 19.2152 2.51115 -170.959 2.53727 -177.919
lowerback -6.05692 1.25993 3.06241
upperback 4.19141 1.51046 -0.356555
thorax 7.90124 0.953401 -1.89546
lowerneck -12.3739 -3.30146 0.347538
upperneck 14.4616 -4.90975 0.895356
head 6.44935 -2.35551 -0.22706
rclavicle -7.65321e-015 8.05078e-015
rhumerus 73.7473 -0.312457 -71.1394
rradius 9.03183
rwrist 48.272
rhand -8.97049 11.0279
rfingers 7.12502
rthumb 16.9748 -18.2503
lclavicle -7.65321e-015 8.05078e-015
lhumerus 77.3798 -6.46361 65.1373
lradius 10.2212
lwrist -48.1844
lhand -13.7199 -8.44708
lfingers 7.12502
lthumb 12.3992 21.1652
rfemur -20.3057 -21.2981 20.5037
rtibia 31.3016
rfoot -13.7458 25.0901
rtoes -12.0492
lfemur -18.3121 15.0994 -17.1772
ltibia 31.5968
lfoot -18.3915 -19.2166
ltoes -10.0658
7
root 0.968913 19.2172 2.51842 -170.861 2.57627 -177.959
lowerback -6.14746 1.27885 3.03156
upperback 4.20191 1.53556 -0.361734
thorax 7.96608 0.964834 -1.87837
lowerneck -12.5199 -3.31752 0.247565
upperneck 14.4724 -4.91588 0.938974
head 6.48156 -2.35712 -0.200432
rclavicle -6.41081e-015 -7.95139e-016
rhumerus 73.6426 -0.311044 -71.1483
rradius 9.02658
rwrist 48.0775
rhand -9.09217 11.1925
rfingers 7.12502
rthumb 16.8577 -18.0957
lclavicle -6.41081e-015 -7.95139e-016
lhumerus 77.5481 -6.59119 64.29
lradius 10.2471
lwrist -47.5177
lhand -13.8068 -8.36959
lfingers 7.12502
lthumb 12.3154 21.2477
rfemur -20.4076 -20.7604 20.4951
rtibia 31.2249
rfoot -14.0065 24.549
rtoes -12.3883
lfemur -18.416 15.3025 -17.2556
ltibia 31.5347
lfoot -18.3735 -19.4693
ltoes -10.0369
8
root 0.97177 19.2187 2.52608 -170.777 2.61129 -178.015
lowerback -6.22409 1.30856 2.9941
upperback 4.20832 1.57809 -0.392772
thorax 8.02005 0.984987 -1.8828
lowerneck -12.6432 -3.34305 0.201239
upperneck 14.4916 -4.94424 0.968271
head 6.51094 -2.3684 -0.188788
rclavicle -1.14301e-015 -7.95139e-016
rhumerus 73.5026 -0.321959 -71.19
rradius 9.03572
rwrist 47.9548
rhand -9.19041 11.2657
rfingers 7.12502
rthumb 16.7631 -18.0306
lclavicle -1.14301e-015 -7.95139e-016
lhumerus 77.7203 -6.79961 63.2443
lradius 10.2751
lwrist -46.7218
lhand -13.8814 -8.26608
lfingers 7.12502
lthumb 12.2434 21.3555
rfemur -20.4852 -20.1318 20.4549
rtibia 31.1391
rfoot -14.2239 23.9247
rtoes -12.6643
lfemur -18.5057 15.4978 -17.343
ltibia 31.4666
lfoot -18.3347 -19.6924
ltoes -10.1203
9
root 0.974388 19.2215 2.53291 -170.698 2.62381 -178.07
lowerback -6.30838 1.32477 2.94986
upperback 4.22932 1.60215 -0.40217
thorax 8.09221 0.995755 -1.86259
lowerneck -12.7505 -3.36849 0.109957
upperneck 14.4577 -4.96077 1.00485
head 6.52186 -2.37546 -0.165397
rclavicle -8.49804e-015 3.27995e-015
rhumerus 73.3551 -0.303826 -71.2061
rradius 9.12442
rwrist 47.8374
rhand -9.17201 11.3361
rfingers 7.12502
rthumb 16.7809 -17.9588
lclavicle -8.49804e-015 3.27995e-015
lhumerus 77.7605 -6.94509 62.5918
lradius 10.3727
lwrist -46.377
lhand -14.0099 -8.11016
lfingers 7.12502
lthumb 12.1196 21.5188
rfemur -20.5679 -19.5519 20.413
rtibia 31.0499
rfoot -14.3635 23.3251
rtoes -12.7243
lfemur -18.6018 15.6702 -17.4311
ltibia 31.4003
lfoot -18.2355 -19.8783
ltoes -9.96005
10
root 0.976527 19.225 2.53935 -170.659 2.61673 -178.104
lowerback -6.33926 1.34774 2.95416
upperback 4.24865 1.63406 -0.42816
thorax 8.13405 1.01348 -1.88717
lowerneck -12.8278 -3.38469 0.113217
upperneck 14.456 -4.97901 0.994826
head 6.5343 -2.38318 -0.172183
rclavicle -1.00386e-014 2.38542e-015
rhumerus 73.1806 -0.296051 -71.2504
rradius 9.21184
rwrist 47.7937
rhand -9.16076 11.3716
rfingers 7.12502
rthumb 16.7917 -17.9223
lclavicle -1.00386e-014 2.38542e-015
lhumerus 77.6939 -7.10108 62.3124
lradius 10.5044
lwrist -46.5083
lhand -14.1468 -7.93148
lfingers 7.12502
lthumb 11.9876 21.7052
rfemur -20.6154 -18.968 20.3758
rtibia 30.9897
rfoot -14.3876 22.7282
rtoes -12.7328
lfemur -18.6709 15.8343 -17.4898
ltibia 31.3563
lfoot -18.1782 -20.0213
ltoes -10.032
11
root 0.978548 19.2273 2.54467 -170.612 2.59091 -178.14
lowerback -6.40875 1.35358 2.93355
upperback 4.2893 1.64255 -0.421895
thorax 8.21822 1.01839 -1.86568
lowerneck -12.8345 -3.39915 0.0620225
upperneck 14.3264 -4.97661 0.989424
head 6.49502 -2.38352 -0.163581
rclavicle 2.75317e-014 8.94531e-016
rhumerus 73.0316 -0.251383 -71.2586
rradius 9.34809
rwrist 47.7341
rhand -9.09424 11.3425
rfingers 7.12502
rthumb 16.8557 -17.9459
lclavicle 2.75317e-014 8.94531e-016
lhumerus 77.5906 -7.16142 62.4745
lradius 10.6229
lwrist -47.0515
lhand -14.288 -7.72031
lfingers 7.12502
lthumb 11.8514 21.9243
rfemur -20.6326 -18.3655 20.3387
rtibia 30.9536
rfoot -14.5986 22.0393
rtoes -13.2763
lfemur -18.7743 15.9666 -17.5582
ltibia 31.3428
lfoot -18.1349 -20.1105
ltoes -10.0148
12
root 0.983404 19.2243 2.54856 -170.598 2.50826 -178.192
lowerback -6.45335 1.33969 2.88986
upperback 4.33007 1.62875 -0.42627
thorax 8.28623 1.01138 -1.84608
lowerneck -12.8363 -3.40683 0.037561
upperneck 14.2424 -4.97299 0.976528
head 6.46868 -2.38307 -0.16216
rclavicle -4.89507e-015 4.67144e-015
rhumerus 72.8886 -0.207952 -71.2906
rradius 9.44195
rwrist 47.6718
rhand -9.09042 11.3378
rfingers 7.12502
rthumb 16.8594 -17.9504
lclavicle -4.89507e-015 4.67144e-015
lhumerus 77.5003 -7.17628 62.9578
lradius 10.6636
lwrist -47.8856
lhand -14.3833 -7.55143
lfingers 7.12502
lthumb 11.7595 22.0985
rfemur -20.5975 -17.632 20.26
rtibia 30.9478
rfoot -14.8827 21.163
rtoes -13.7575
lfemur -18.8624 16.0425 -17.6182
ltibia 31.3593
lfoot -18.0643 -20.2048
ltoes -9.9992
13
root 0.98912 19.222 2.5472 -170.64 2.33654 -178.226
lowerback -6.50517 1.30339 2.87345
upperback 4.40905 1.58314 -0.4196
thorax 8.39868 0.991966 -1.83379
lowerneck -12.7977 -3.40977 0.0432956
upperneck 14.0932 -4.962 0.944639
head 6.41328 -2.37921 -0.169248
rclavicle 1.41634e-015 -5.26779e-015
rhumerus 72.7881 -0.186157 -71.3154
rradius 9.4869
rwrist 47.5791
rhand -9.09481 11.2949
rfingers 7.12502
rthumb 16.8552 -17.9936
lclavicle 1.41634e-015 -5.26779e-015
lhumerus 77.5103 -7.17221 63.5138
lradius 10.6338
lwrist -48.7129
lhand -14.5239 -7.4436
lfingers 7.12502
lthumb 11.6239 22.214
rfemur -20.4827 -17.1032 20.1948
rtibia 30.9579
rfoot -15.1288 20.4472
rtoes -14.0736
lfemur -18.8884 16.0372 -17.6432
ltibia 31.3965
lfoot -18.1852 -20.1424
ltoes -10.7126
